
<!DOCTYPE svg PUBLIC "-//W3C//DTD SVG 20010904//EN" "http://www.w3.org/TR/2001/REC-SVG-20010904/DTD/svg10.dtd">
<svg version="1.0" xmlns="http://www.w3.org/2000/svg" viewBox="0 0 10000 10000" preserveAspectRatio="xMidYMid meet">
<g id="layer101" fill="#f08080" stroke="none">
 <path d="M4720 9491 c-8 -5 -69 -11 -135 -15 -66 -3 -147 -11 -180 -16 -33 -6 -103 -17 -155 -25 -106 -17 -195 -35 -285 -60 -33 -10 -91 -24 -130 -32 -38 -8 -79 -18 -90 -23 -11 -4 -38 -13 -60 -18 -22 -6 -65 -20 -95 -32 -30 -12 -71 -26 -90 -32 -19 -5 -39 -14 -45 -19 -5 -5 -15 -9 -23 -9 -8 0 -28 -6 -45 -14 -18 -7 -59 -23 -92 -36 -63 -24 -139 -56 -165 -71 -35 -19 -178 -89 -183 -89 -10 0 -175 -94 -240 -136 -37 -25 -79 -50 -95 -57 -15 -6 -29 -14 -32 -17 -13 -14 -70 -50 -79 -50 -5 0 -11 -3 -13 -7 -5 -13 -76 -63 -87 -63 -6 0 -11 -4 -11 -9 0 -5 -15 -19 -33 -30 -18 -11 -42 -28 -54 -38 -12 -10 -31 -25 -43 -33 -49 -33 -127 -97 -168 -137 -23 -24 -45 -43 -48 -43 -16 0 -414 -399 -414 -414 0 -5 -21 -30 -48 -57 -57 -59 -92 -103 -92 -118 0 -6 -3 -11 -7 -11 -5 0 -21 -20 -38 -45 -16 -24 -33 -45 -37 -45 -5 0 -8 -7 -8 -15 0 -8 -9 -19 -20 -25 -11 -6 -20 -17 -20 -25 0 -8 -6 -18 -12 -22 -17 -11 -58 -69 -58 -83 0 -5 -4 -10 -8 -10 -5 0 -19 -20 -31 -45 -12 -25 -26 -45 -30 -45 -4 0 -13 -16 -20 -35 -7 -19 -17 -35 -22 -35 -5 0 -9 -6 -9 -14 0 -8 -6 -21 -13 -28 -7 -7 -20 -26 -28 -43 -23 -46 -43 -78 -56 -93 -7 -7 -13 -20 -13 -28 0 -8 -4 -14 -10 -14 -5 0 -10 -7 -10 -15 0 -8 -10 -34 -21 -57 -12 -24 -31 -63 -43 -88 -11 -24 -27 -51 -33 -58 -7 -7 -13 -22 -13 -33 0 -10 -4 -19 -10 -19 -5 0 -12 -12 -16 -27 -3 -16 -14 -46 -24 -68 -40 -89 -50 -113 -50 -123 0 -5 -7 -23 -15 -38 -8 -16 -15 -36 -15 -44 0 -8 -9 -33 -20 -55 -11 -22 -19 -50 -20 -62 0 -12 -4 -23 -9 -25 -6 -1 -13 -19 -16 -38 -3 -19 -10 -37 -14 -40 -4 -3 -15 -41 -24 -85 -26 -129 -41 -190 -48 -195 -4 -3 -10 -26 -14 -53 -4 -26 -11 -49 -15 -52 -5 -3 -11 -36 -15 -73 -3 -37 -9 -74 -12 -82 -4 -8 -8 -24 -9 -35 -11 -72 -36 -285 -44 -360 -11 -120 -11 -634 0 -760 9 -102 36 -319 45 -365 3 -14 10 -56 15 -95 6 -38 14 -77 17 -85 4 -8 12 -37 19 -65 13 -52 33 -129 40 -155 2 -8 12 -49 22 -90 9 -41 20 -80 24 -85 3 -6 9 -27 13 -48 4 -20 11 -37 15 -37 7 0 21 -42 22 -67 0 -5 7 -17 14 -28 8 -11 14 -28 14 -38 0 -10 7 -32 16 -48 8 -17 17 -40 20 -52 2 -12 10 -36 19 -54 15 -34 32 -72 67 -153 11 -25 23 -52 28 -60 5 -8 19 -35 31 -60 12 -25 25 -52 30 -60 5 -8 14 -26 20 -40 6 -14 15 -32 20 -40 5 -8 14 -26 20 -40 6 -14 18 -33 26 -42 9 -10 12 -18 7 -18 -5 0 -2 -6 6 -13 8 -7 21 -23 28 -37 7 -14 21 -38 32 -55 11 -16 26 -44 34 -60 18 -38 107 -169 118 -173 4 -2 8 -10 8 -18 0 -8 7 -17 15 -20 8 -4 15 -11 15 -16 0 -6 18 -32 40 -58 22 -26 40 -52 40 -57 0 -5 13 -23 30 -41 16 -18 30 -38 30 -43 0 -5 7 -12 15 -15 8 -4 15 -11 15 -17 0 -6 15 -25 33 -42 18 -16 44 -46 59 -65 14 -19 52 -63 84 -96 33 -34 83 -89 113 -123 30 -34 58 -61 62 -61 4 0 49 -39 99 -88 51 -48 103 -94 115 -102 13 -9 35 -28 49 -43 14 -15 30 -27 36 -27 5 0 10 -4 10 -10 0 -5 15 -17 33 -26 17 -9 34 -20 37 -24 9 -13 136 -106 153 -113 9 -3 17 -11 17 -17 0 -5 7 -10 15 -10 8 0 15 -5 15 -10 0 -6 12 -16 28 -23 15 -6 29 -14 32 -17 5 -5 91 -61 135 -88 11 -7 31 -18 45 -24 14 -7 29 -18 33 -25 4 -7 14 -13 22 -13 7 0 20 -6 27 -13 17 -15 49 -34 113 -65 28 -13 57 -28 65 -33 8 -5 22 -12 30 -15 20 -7 161 -75 180 -85 8 -5 26 -14 40 -19 14 -6 37 -17 52 -25 14 -8 34 -15 45 -15 10 0 27 -7 37 -15 11 -8 27 -15 35 -15 9 -1 34 -9 56 -20 22 -11 48 -19 57 -20 9 0 19 -4 22 -9 4 -5 25 -12 49 -16 23 -4 44 -11 47 -16 3 -4 28 -13 55 -20 28 -6 57 -15 66 -19 9 -5 34 -12 55 -15 22 -4 48 -10 59 -15 26 -11 145 -40 220 -54 33 -6 65 -14 70 -17 6 -4 42 -10 80 -14 39 -4 77 -11 86 -15 8 -5 62 -12 120 -16 57 -4 110 -11 117 -17 18 -15 689 -21 827 -8 238 23 321 32 335 38 8 4 49 12 90 19 102 17 232 44 250 51 8 4 38 12 65 19 28 7 70 17 95 23 25 7 52 14 60 18 8 4 38 12 65 19 57 14 132 39 157 54 10 6 23 10 30 10 7 0 24 6 38 13 14 7 46 19 73 26 26 8 50 18 53 22 3 5 12 9 20 9 9 0 61 22 117 49 56 27 112 52 125 56 12 3 22 11 22 16 0 5 6 9 14 9 16 0 118 49 126 61 3 4 18 11 33 14 15 4 27 11 27 16 0 5 6 9 13 9 8 0 24 9 37 20 13 11 29 20 37 20 7 0 13 4 13 9 0 5 16 15 35 21 19 6 35 16 35 21 0 5 7 9 15 9 7 0 18 6 22 12 8 13 40 34 93 60 14 7 27 15 30 18 3 3 16 11 30 18 14 7 45 31 70 52 25 22 48 40 52 40 4 0 13 6 20 13 7 6 32 25 56 41 23 16 42 33 42 37 0 5 7 9 15 9 7 0 18 6 22 13 4 7 19 20 33 28 14 9 46 36 71 60 26 24 77 72 113 106 36 35 71 63 77 63 5 0 7 5 4 10 -3 6 0 10 7 10 14 0 128 109 128 123 0 5 27 34 60 65 33 32 60 61 60 65 0 5 28 37 62 73 34 35 66 72 72 81 5 10 15 22 23 26 7 4 13 13 13 19 0 7 17 32 38 57 21 25 54 68 73 96 41 59 49 71 69 94 14 17 24 33 53 84 6 12 18 26 25 30 6 4 12 17 12 27 0 10 6 23 13 27 7 4 21 26 32 48 11 22 34 60 50 85 34 50 145 272 145 289 0 6 5 11 10 11 6 0 10 4 10 10 0 5 23 57 50 114 28 57 50 109 50 116 0 6 9 29 20 50 11 22 18 40 16 40 -6 0 40 128 51 142 6 7 14 31 18 53 4 22 11 42 15 45 5 3 11 19 14 35 14 73 17 86 26 110 5 14 12 40 15 58 4 18 13 51 21 75 7 23 14 51 14 61 0 10 3 21 7 25 7 7 8 8 18 71 4 22 11 60 17 85 5 25 14 79 19 120 5 41 12 86 15 100 24 100 37 311 37 605 0 262 -15 541 -30 575 -9 22 -9 17 -17 110 -5 47 -12 90 -16 95 -4 6 -12 50 -18 99 -7 49 -16 94 -21 100 -4 6 -12 32 -15 58 -4 26 -11 50 -16 53 -4 3 -11 29 -15 58 -4 28 -11 57 -15 62 -4 6 -12 39 -19 74 -6 36 -15 69 -21 75 -5 5 -10 17 -10 25 -1 9 -9 34 -20 56 -11 22 -19 48 -20 57 0 9 -4 19 -9 22 -5 3 -14 28 -21 56 -7 28 -16 53 -21 56 -5 3 -9 13 -9 22 -1 9 -9 35 -20 57 -11 22 -19 43 -20 47 0 4 -16 41 -35 82 -19 41 -35 79 -35 85 0 5 -3 11 -7 13 -11 4 -79 138 -87 171 -3 15 -11 27 -16 27 -6 0 -10 6 -10 13 0 6 -18 40 -40 75 -22 34 -40 67 -40 72 0 4 -4 10 -8 12 -5 2 -32 44 -62 93 -60 100 -98 154 -237 340 -5 6 -25 31 -45 57 -21 25 -38 50 -38 54 0 4 -15 21 -32 39 -18 18 -84 89 -147 158 -63 69 -170 177 -239 239 -68 62 -141 129 -162 148 -20 19 -47 42 -59 50 -21 13 -57 40 -86 63 -118 92 -247 184 -310 221 -120 71 -120 71 -125 76 -23 25 -219 128 -445 234 -66 31 -127 61 -135 65 -9 5 -31 12 -50 16 -19 4 -37 10 -40 14 -3 3 -43 19 -90 35 -47 15 -99 34 -117 42 -17 8 -38 14 -46 14 -9 0 -18 4 -21 9 -4 5 -25 12 -48 16 -23 4 -49 11 -58 16 -8 5 -46 15 -85 23 -141 30 -170 37 -186 46 -9 4 -38 11 -65 15 -27 4 -56 9 -64 13 -29 11 -256 42 -390 52 -74 6 -155 15 -180 21 -53 11 -538 11 -560 0z m-85 -1140 c98 -10 263 -38 290 -51 11 -5 36 -12 55 -15 38 -7 107 -29 157 -51 17 -8 40 -14 50 -14 11 0 28 -7 39 -15 10 -8 26 -15 35 -15 9 0 22 -6 28 -14 7 -8 27 -17 46 -20 19 -4 35 -11 35 -16 0 -5 12 -13 27 -16 15 -4 59 -29 97 -56 39 -26 74 -48 79 -48 5 0 47 -29 93 -65 46 -36 86 -65 89 -65 3 0 32 -26 66 -57 33 -32 71 -63 82 -70 12 -6 29 -22 37 -34 17 -25 81 -99 123 -141 15 -15 27 -32 27 -37 0 -6 7 -14 16 -19 8 -5 21 -18 27 -29 27 -47 93 -147 110 -164 9 -11 17 -23 17 -29 0 -5 5 -10 10 -10 6 0 10 -5 10 -11 0 -6 9 -23 19 -38 11 -15 23 -39 26 -54 4 -15 11 -27 15 -27 5 0 12 -14 15 -32 4 -17 14 -38 21 -46 8 -7 14 -21 14 -30 0 -9 7 -26 15 -36 8 -11 15 -29 15 -41 0 -12 3 -25 8 -29 4 -4 7 -11 8 -14 0 -4 3 -14 6 -22 21 -57 37 -110 43 -140 3 -19 10 -44 15 -55 10 -23 30 -112 36 -165 2 -19 9 -78 15 -130 13 -109 5 -500 -12 -570 -5 -25 -15 -72 -21 -105 -5 -33 -14 -64 -18 -70 -4 -5 -11 -32 -15 -59 -4 -27 -14 -61 -21 -75 -8 -14 -14 -34 -14 -43 0 -9 -4 -19 -9 -23 -5 -3 -15 -30 -22 -60 -7 -30 -16 -55 -20 -55 -4 0 -10 -13 -14 -30 -4 -16 -11 -30 -16 -30 -5 0 -12 -12 -15 -27 -4 -15 -13 -38 -20 -52 -8 -14 -14 -32 -14 -39 0 -7 -7 -15 -15 -18 -8 -4 -13 -9 -11 -13 3 -4 -6 -20 -20 -36 -13 -15 -24 -34 -24 -42 0 -7 -4 -13 -10 -13 -5 0 -10 -6 -10 -13 0 -8 -9 -25 -20 -38 -31 -38 -34 -42 -49 -71 -8 -16 -18 -28 -23 -28 -5 0 -13 -11 -18 -25 -5 -14 -14 -25 -20 -25 -5 0 -10 -5 -10 -11 0 -17 -180 -204 -279 -289 -35 -30 -69 -60 -75 -66 -7 -6 -26 -19 -44 -28 -18 -9 -32 -21 -32 -26 0 -6 -7 -10 -15 -10 -7 0 -18 -6 -22 -13 -8 -14 -125 -87 -139 -87 -4 0 -15 -6 -23 -14 -21 -19 -153 -86 -168 -86 -7 0 -13 -4 -13 -9 0 -5 -15 -13 -32 -16 -18 -4 -37 -11 -43 -15 -5 -4 -26 -13 -45 -18 -19 -6 -62 -21 -95 -33 -60 -21 -140 -41 -245 -60 -30 -6 -71 -15 -90 -21 -52 -15 -491 -22 -575 -9 -38 7 -101 16 -140 21 -38 6 -79 14 -90 20 -11 5 -40 13 -65 19 -81 17 -165 42 -174 52 -6 5 -16 9 -24 9 -7 0 -34 9 -60 21 -26 11 -63 27 -82 36 -73 31 -175 85 -217 114 -24 16 -47 29 -51 29 -5 0 -17 7 -27 15 -11 8 -54 40 -95 70 -119 87 -237 195 -346 315 -51 57 -187 237 -205 272 -8 15 -33 58 -56 96 -23 37 -45 80 -48 95 -4 15 -11 27 -16 27 -5 0 -9 5 -9 11 0 6 -6 25 -14 42 -44 96 -56 127 -56 141 0 8 -4 17 -9 21 -5 3 -15 31 -22 63 -7 31 -15 62 -19 67 -4 6 -10 30 -14 55 -4 24 -11 49 -16 55 -5 6 -13 45 -16 86 -4 41 -12 80 -18 88 -14 18 -19 510 -5 566 11 45 13 57 23 135 4 30 14 74 22 97 7 24 15 57 16 74 1 17 6 33 10 35 4 3 8 15 8 26 0 12 8 40 18 62 21 46 39 95 53 144 6 17 14 32 19 32 6 0 10 7 10 17 0 22 72 166 87 176 7 4 13 12 13 17 0 15 72 134 87 143 7 4 13 15 13 22 0 8 4 15 9 15 5 0 18 15 30 33 11 17 26 40 33 51 18 26 101 115 178 190 36 35 85 84 110 109 25 24 53 47 63 50 9 4 17 11 17 17 0 5 5 10 11 10 6 0 25 11 43 25 47 38 48 39 91 65 22 13 42 27 45 31 3 4 17 13 30 18 29 13 59 31 78 49 7 6 22 12 31 12 10 0 24 7 31 15 7 8 21 15 31 15 9 0 24 6 31 13 14 14 161 73 223 89 22 6 45 14 50 18 6 4 30 11 55 15 25 4 50 11 55 15 11 9 188 40 285 50 91 10 369 10 465 1z"/>
 </g>

</svg>